<svg width="1920" height="1080" viewBox="0 0 1920 1080" fill="none" xmlns="http://www.w3.org/2000/svg">
<g clip-path="url(#clip0)">
<rect width="1920" height="1079.47" fill="#9F9F9F"/>
<path d="M-63.3889 1187.07L43.3756 1043.83L150.992 1186.69L-63.3889 1187.07Z" fill="#0BC4FF"/>
<path d="M48.1288 1188.09L182.818 1007.39L318.582 1187.61L48.1288 1188.09Z" fill="#0BC4FF"/>
<path d="M167.934 1188.09L302.623 1007.39L438.387 1187.61L167.934 1188.09Z" fill="#0BC4FF"/>
<path d="M334.848 1193.68L456.234 1030.83L578.589 1193.25L334.848 1193.68Z" fill="#0BC4FF"/>
<path d="M464.166 1202.48L574.167 1054.9L685.045 1202.09L464.166 1202.48Z" fill="#0BC4FF"/>
<path d="M587.6 1187.07L694.365 1043.83L801.981 1186.69L587.6 1187.07Z" fill="#0BC4FF"/>
<path d="M699.118 1188.09L833.807 1007.39L969.57 1187.61L699.118 1188.09Z" fill="#0BC4FF"/>
<path d="M818.922 1188.09L953.612 1007.39L1089.38 1187.61L818.922 1188.09Z" fill="#0BC4FF"/>
<path d="M985.837 1193.68L1107.22 1030.83L1229.58 1193.25L985.837 1193.68Z" fill="#0BC4FF"/>
<path d="M1115.15 1202.48L1225.16 1054.9L1336.03 1202.09L1115.15 1202.48Z" fill="#0BC4FF"/>
<path d="M1221.27 1187.07L1328.03 1043.83L1435.65 1186.69L1221.27 1187.07Z" fill="#0BC4FF"/>
<path d="M1332.78 1188.09L1467.47 1007.39L1603.24 1187.61L1332.78 1188.09Z" fill="#0BC4FF"/>
<path d="M1452.59 1188.09L1587.28 1007.39L1723.04 1187.61L1452.59 1188.09Z" fill="#0BC4FF"/>
<path d="M1619.5 1193.68L1740.89 1030.83L1863.25 1193.25L1619.5 1193.68Z" fill="#0BC4FF"/>
<path d="M1748.82 1202.48L1858.82 1054.9L1969.7 1202.09L1748.82 1202.48Z" fill="#0BC4FF"/>
<path d="M17.8785 1149.57L371.063 675.735L727.065 1148.31L17.8785 1149.57Z" fill="#0BC4FF"/>
<path d="M-72.0597 1191.87L34.7048 1048.63L142.321 1191.49L-72.0597 1191.87Z" fill="#FF3F6D"/>
<path d="M39.4579 1192.89L174.147 1012.19L309.911 1192.41L39.4579 1192.89Z" fill="#FF3F6D"/>
<path d="M0.53777 1149.57L353.722 675.735L709.724 1148.31L0.53777 1149.57Z" fill="#FF3F6D"/>
<path d="M326.177 1198.48L447.564 1035.63L569.919 1198.05L326.177 1198.48Z" fill="#FF3F6D"/>
<path d="M455.495 1207.28L565.496 1059.7L676.374 1206.89L455.495 1207.28Z" fill="#FF3F6D"/>
<path d="M578.929 1191.87L685.694 1048.63L793.31 1191.49L578.929 1191.87Z" fill="#FF3F6D"/>
<path d="M690.447 1192.89L825.136 1012.19L960.9 1192.41L690.447 1192.89Z" fill="#FF3F6D"/>
<path d="M810.252 1192.89L944.941 1012.19L1080.7 1192.41L810.252 1192.89Z" fill="#FF3F6D"/>
<path d="M977.166 1198.48L1098.55 1035.63L1220.91 1198.05L977.166 1198.48Z" fill="#FF3F6D"/>
<path d="M1106.48 1207.28L1216.48 1059.7L1327.36 1206.89L1106.48 1207.28Z" fill="#FF3F6D"/>
<path d="M1212.6 1191.87L1319.36 1048.63L1426.98 1191.49L1212.6 1191.87Z" fill="#FF3F6D"/>
<path d="M1324.12 1192.89L1458.8 1012.19L1594.57 1192.41L1324.12 1192.89Z" fill="#FF3F6D"/>
<path d="M1443.92 1192.89L1578.61 1012.19L1714.37 1192.41L1443.92 1192.89Z" fill="#FF3F6D"/>
<path d="M1610.83 1198.48L1732.22 1035.63L1854.58 1198.05L1610.83 1198.48Z" fill="#FF3F6D"/>
<path d="M1740.15 1207.28L1850.15 1059.7L1961.03 1206.89L1740.15 1207.28Z" fill="#FF3F6D"/>
<rect x="-21" y="175.093" width="1714.94" height="75.3267" fill="#9F9F9F"/>
<circle cx="368.188" cy="535.406" r="62.7723" fill="#686868"/>
<circle cx="430.96" cy="512.808" r="62.7723" fill="#686868"/>
<circle cx="500.01" cy="530.384" r="62.7723" fill="#686868"/>
<circle cx="479.923" cy="581.857" r="62.7723" fill="#686868"/>
<circle cx="407.107" cy="581.857" r="62.7723" fill="#686868"/>
<circle cx="280.307" cy="620.776" r="62.7723" fill="#686868"/>
<circle cx="343.079" cy="598.178" r="62.7723" fill="#686868"/>
<circle cx="412.129" cy="615.754" r="62.7723" fill="#686868"/>
<circle cx="392.042" cy="667.228" r="62.7723" fill="#686868"/>
<circle cx="319.226" cy="667.228" r="62.7723" fill="#686868"/>
<circle cx="562.782" cy="348.345" r="62.7723" fill="#686868"/>
<circle cx="625.554" cy="325.747" r="62.7723" fill="#686868"/>
<circle cx="694.604" cy="343.323" r="62.7723" fill="#686868"/>
<circle cx="674.517" cy="394.796" r="62.7723" fill="#686868"/>
<circle cx="601.701" cy="394.796" r="62.7723" fill="#686868"/>
<circle cx="685.816" cy="291.85" r="62.7723" fill="#686868"/>
<circle cx="748.588" cy="269.251" r="62.7723" fill="#686868"/>
<circle cx="817.638" cy="286.828" r="62.7723" fill="#686868"/>
<circle cx="797.55" cy="338.301" r="62.7723" fill="#686868"/>
<circle cx="724.735" cy="338.301" r="62.7723" fill="#686868"/>
<circle cx="807.594" cy="240.376" r="62.7723" fill="#686868"/>
<circle cx="870.366" cy="217.778" r="62.7723" fill="#686868"/>
<circle cx="939.416" cy="235.354" r="62.7723" fill="#686868"/>
<circle cx="919.329" cy="286.828" r="62.7723" fill="#686868"/>
<circle cx="846.513" cy="286.828" r="62.7723" fill="#686868"/>
<circle cx="972.057" cy="181.37" r="62.7723" fill="#686868"/>
<circle cx="1034.83" cy="158.772" r="62.7723" fill="#686868"/>
<circle cx="1103.88" cy="176.349" r="62.7723" fill="#686868"/>
<circle cx="1083.79" cy="227.822" r="62.7723" fill="#686868"/>
<circle cx="1010.98" cy="227.822" r="62.7723" fill="#686868"/>
<circle cx="945.693" cy="301.893" r="62.7723" fill="#686868"/>
<circle cx="1008.47" cy="279.295" r="62.7723" fill="#686868"/>
<circle cx="1077.51" cy="296.871" r="62.7723" fill="#686868"/>
<circle cx="1057.43" cy="348.345" r="62.7723" fill="#686868"/>
<circle cx="984.612" cy="348.345" r="62.7723" fill="#686868"/>
<circle cx="852.79" cy="349.6" r="62.7723" fill="#686868"/>
<circle cx="915.562" cy="327.002" r="62.7723" fill="#686868"/>
<circle cx="984.612" cy="344.578" r="62.7723" fill="#686868"/>
<circle cx="964.525" cy="396.051" r="62.7723" fill="#686868"/>
<circle cx="891.709" cy="396.051" r="62.7723" fill="#686868"/>
<circle cx="1077.51" cy="286.828" r="62.7723" fill="#686868"/>
<circle cx="1140.29" cy="264.23" r="62.7723" fill="#686868"/>
<circle cx="1209.34" cy="281.806" r="62.7723" fill="#686868"/>
<circle cx="1189.25" cy="333.279" r="62.7723" fill="#686868"/>
<circle cx="1116.43" cy="333.279" r="62.7723" fill="#686868"/>
<circle cx="1206.83" cy="327.002" r="62.7723" fill="#686868"/>
<circle cx="1269.6" cy="304.404" r="62.7723" fill="#686868"/>
<circle cx="1338.65" cy="321.98" r="62.7723" fill="#686868"/>
<circle cx="1318.56" cy="373.453" r="62.7723" fill="#686868"/>
<circle cx="1245.74" cy="373.453" r="62.7723" fill="#686868"/>
<circle cx="1285.92" cy="235.354" r="62.7723" fill="#686868"/>
<circle cx="1348.69" cy="212.756" r="62.7723" fill="#686868"/>
<circle cx="1417.74" cy="230.333" r="62.7723" fill="#686868"/>
<circle cx="1397.65" cy="281.806" r="62.7723" fill="#686868"/>
<circle cx="1324.84" cy="281.806" r="62.7723" fill="#686868"/>
<circle cx="1275.88" cy="428.693" r="62.7723" fill="#686868"/>
<circle cx="1338.65" cy="406.095" r="62.7723" fill="#686868"/>
<circle cx="1407.7" cy="423.671" r="62.7723" fill="#686868"/>
<circle cx="1387.61" cy="475.145" r="62.7723" fill="#686868"/>
<circle cx="1314.79" cy="475.145" r="62.7723" fill="#686868"/>
<circle cx="1120.2" cy="439.992" r="62.7723" fill="#686868"/>
<circle cx="1182.97" cy="417.394" r="62.7723" fill="#686868"/>
<circle cx="1252.02" cy="434.97" r="62.7723" fill="#686868"/>
<circle cx="1231.93" cy="486.444" r="62.7723" fill="#686868"/>
<circle cx="1159.12" cy="486.444" r="62.7723" fill="#686868"/>
<circle cx="974.568" cy="481.422" r="62.7723" fill="#686868"/>
<circle cx="1037.34" cy="458.824" r="62.7723" fill="#686868"/>
<circle cx="1106.39" cy="476.4" r="62.7723" fill="#686868"/>
<circle cx="1086.3" cy="527.873" r="62.7723" fill="#686868"/>
<circle cx="1013.49" cy="527.873" r="62.7723" fill="#686868"/>
<circle cx="1223.15" cy="514.063" r="62.7723" fill="#686868"/>
<circle cx="1285.92" cy="491.465" r="62.7723" fill="#686868"/>
<circle cx="1354.97" cy="509.042" r="62.7723" fill="#686868"/>
<circle cx="1334.88" cy="560.515" r="62.7723" fill="#686868"/>
<circle cx="1262.07" cy="560.515" r="62.7723" fill="#686868"/>
<circle cx="1362.5" cy="481.422" r="62.7723" fill="#686868"/>
<circle cx="1425.27" cy="458.824" r="62.7723" fill="#686868"/>
<circle cx="1494.32" cy="476.4" r="62.7723" fill="#686868"/>
<circle cx="1474.24" cy="527.873" r="62.7723" fill="#686868"/>
<circle cx="1401.42" cy="527.873" r="62.7723" fill="#686868"/>
<circle cx="1474.24" cy="386.008" r="62.7723" fill="#686868"/>
<circle cx="1537.01" cy="363.41" r="62.7723" fill="#686868"/>
<circle cx="1606.06" cy="380.986" r="62.7723" fill="#686868"/>
<circle cx="1585.97" cy="432.459" r="62.7723" fill="#686868"/>
<circle cx="1513.15" cy="432.459" r="62.7723" fill="#686868"/>
<circle cx="1572.16" cy="270.507" r="62.7723" fill="#686868"/>
<circle cx="1634.93" cy="247.909" r="62.7723" fill="#686868"/>
<circle cx="1703.98" cy="265.485" r="62.7723" fill="#686868"/>
<circle cx="1683.9" cy="316.958" r="62.7723" fill="#686868"/>
<circle cx="1611.08" cy="316.958" r="62.7723" fill="#686868"/>
<circle cx="1606.06" cy="222.8" r="62.7723" fill="#686868"/>
<circle cx="1668.83" cy="200.202" r="62.7723" fill="#686868"/>
<circle cx="1737.88" cy="217.778" r="62.7723" fill="#686868"/>
<circle cx="1717.79" cy="269.251" r="62.7723" fill="#686868"/>
<circle cx="1644.98" cy="269.251" r="62.7723" fill="#686868"/>
<circle cx="1354.97" cy="335.79" r="62.7723" fill="#686868"/>
<circle cx="1417.74" cy="313.192" r="62.7723" fill="#686868"/>
<circle cx="1486.79" cy="330.768" r="62.7723" fill="#686868"/>
<circle cx="1466.7" cy="382.242" r="62.7723" fill="#686868"/>
<circle cx="1393.89" cy="382.242" r="62.7723" fill="#686868"/>
<circle cx="1450.38" cy="210.246" r="62.7723" fill="#686868"/>
<circle cx="1513.15" cy="187.648" r="62.7723" fill="#686868"/>
<circle cx="1582.2" cy="205.224" r="62.7723" fill="#686868"/>
<circle cx="1562.12" cy="256.697" r="62.7723" fill="#686868"/>
<circle cx="1489.3" cy="256.697" r="62.7723" fill="#686868"/>
<circle cx="1144.05" cy="217.778" r="62.7723" fill="#686868"/>
<circle cx="1206.83" cy="195.18" r="62.7723" fill="#686868"/>
<circle cx="1275.88" cy="212.756" r="62.7723" fill="#686868"/>
<circle cx="1255.79" cy="264.23" r="62.7723" fill="#686868"/>
<circle cx="1182.97" cy="264.23" r="62.7723" fill="#686868"/>
<circle cx="448.537" cy="428.693" r="62.7723" fill="#686868"/>
<circle cx="511.309" cy="406.095" r="62.7723" fill="#686868"/>
<circle cx="580.358" cy="423.671" r="62.7723" fill="#686868"/>
<circle cx="560.271" cy="475.145" r="62.7723" fill="#686868"/>
<circle cx="487.455" cy="475.145" r="62.7723" fill="#686868"/>
<circle cx="522.608" cy="478.911" r="62.7723" fill="#686868"/>
<circle cx="585.38" cy="456.313" r="62.7723" fill="#686868"/>
<circle cx="654.43" cy="473.889" r="62.7723" fill="#686868"/>
<circle cx="634.343" cy="525.362" r="62.7723" fill="#686868"/>
<circle cx="561.527" cy="525.362" r="62.7723" fill="#686868"/>
</g>
<defs>
<clipPath id="clip0">
<rect width="1920" height="1079.47" fill="white"/>
</clipPath>
</defs>
</svg>
