<svg width="1920" height="1080" viewBox="0 0 1920 1080" fill="none" xmlns="http://www.w3.org/2000/svg">
<g clip-path="url(#clip0)">
<rect width="1920" height="1079.47" fill="#9F9F9F"/>
<path d="M-129.389 1116.92L-22.6244 1012.55L84.9917 1116.65L-129.389 1116.92Z" fill="#0BC4FF"/>
<path d="M-17.8712 1117.66L116.818 985.996L252.582 1117.32L-17.8712 1117.66Z" fill="#0BC4FF"/>
<path d="M101.934 1117.66L236.623 985.996L372.387 1117.32L101.934 1117.66Z" fill="#0BC4FF"/>
<path d="M268.848 1121.74L390.234 1003.08L512.589 1121.43L268.848 1121.74Z" fill="#0BC4FF"/>
<path d="M398.166 1128.15L508.167 1020.62L619.045 1127.87L398.166 1128.15Z" fill="#0BC4FF"/>
<path d="M521.6 1116.92L628.365 1012.55L735.981 1116.65L521.6 1116.92Z" fill="#0BC4FF"/>
<path d="M633.118 1117.66L767.807 985.996L903.57 1117.32L633.118 1117.66Z" fill="#0BC4FF"/>
<path d="M752.922 1117.66L887.612 985.996L1023.38 1117.32L752.922 1117.66Z" fill="#0BC4FF"/>
<path d="M919.837 1121.74L1041.22 1003.08L1163.58 1121.43L919.837 1121.74Z" fill="#0BC4FF"/>
<path d="M1049.15 1128.15L1159.16 1020.62L1270.03 1127.87L1049.15 1128.15Z" fill="#0BC4FF"/>
<path d="M1155.27 1116.92L1262.03 1012.55L1369.65 1116.65L1155.27 1116.92Z" fill="#0BC4FF"/>
<path d="M1266.78 1117.66L1401.47 985.996L1537.24 1117.32L1266.78 1117.66Z" fill="#0BC4FF"/>
<path d="M1386.59 1117.66L1521.28 985.996L1657.04 1117.32L1386.59 1117.66Z" fill="#0BC4FF"/>
<path d="M1553.5 1121.74L1674.89 1003.08L1797.25 1121.43L1553.5 1121.74Z" fill="#0BC4FF"/>
<path d="M1682.82 1128.15L1792.82 1020.62L1903.7 1127.87L1682.82 1128.15Z" fill="#0BC4FF"/>
<path d="M-48.1215 1089.6L305.063 744.332L661.065 1088.68L-48.1215 1089.6Z" fill="#0BC4FF"/>
<path d="M-138.06 1120.42L-31.2953 1016.05L76.3209 1120.15L-138.06 1120.42Z" fill="#FF3F6D"/>
<path d="M-26.5421 1121.16L108.147 989.494L243.911 1120.81L-26.5421 1121.16Z" fill="#FF3F6D"/>
<path d="M-65.4622 1089.6L287.722 744.332L643.724 1088.68L-65.4622 1089.6Z" fill="#FF3F6D"/>
<path d="M260.177 1125.24L381.564 1006.58L503.919 1124.93L260.177 1125.24Z" fill="#FF3F6D"/>
<path d="M389.495 1131.65L499.496 1024.12L610.374 1131.37L389.495 1131.65Z" fill="#FF3F6D"/>
<path d="M512.929 1120.42L619.694 1016.05L727.31 1120.15L512.929 1120.42Z" fill="#FF3F6D"/>
<path d="M624.447 1121.16L759.136 989.494L894.9 1120.81L624.447 1121.16Z" fill="#FF3F6D"/>
<path d="M744.252 1121.16L878.941 989.494L1014.7 1120.81L744.252 1121.16Z" fill="#FF3F6D"/>
<path d="M911.166 1125.24L1032.55 1006.58L1154.91 1124.93L911.166 1125.24Z" fill="#FF3F6D"/>
<path d="M1040.48 1131.65L1150.48 1024.12L1261.36 1131.37L1040.48 1131.65Z" fill="#FF3F6D"/>
<path d="M1146.6 1120.42L1253.36 1016.05L1360.98 1120.15L1146.6 1120.42Z" fill="#FF3F6D"/>
<path d="M1258.12 1121.16L1392.8 989.494L1528.57 1120.81L1258.12 1121.16Z" fill="#FF3F6D"/>
<path d="M1377.92 1121.16L1512.61 989.494L1648.37 1120.81L1377.92 1121.16Z" fill="#FF3F6D"/>
<path d="M1544.83 1125.24L1666.22 1006.58L1788.58 1124.93L1544.83 1125.24Z" fill="#FF3F6D"/>
<path d="M1674.15 1131.65L1784.15 1024.12L1895.03 1131.37L1674.15 1131.65Z" fill="#FF3F6D"/>
<rect x="-63" y="234.093" width="1714.94" height="75.3267" fill="#9F9F9F"/>
<circle cx="326.188" cy="594.406" r="62.7723" fill="#686868"/>
<circle cx="388.96" cy="571.808" r="62.7723" fill="#686868"/>
<circle cx="458.01" cy="589.384" r="62.7723" fill="#686868"/>
<circle cx="437.923" cy="640.857" r="62.7723" fill="#686868"/>
<circle cx="365.107" cy="640.857" r="62.7723" fill="#686868"/>
<circle cx="238.307" cy="679.776" r="62.7723" fill="#686868"/>
<circle cx="301.079" cy="657.178" r="62.7723" fill="#686868"/>
<circle cx="370.129" cy="674.754" r="62.7723" fill="#686868"/>
<circle cx="350.042" cy="726.228" r="62.7723" fill="#686868"/>
<circle cx="277.226" cy="726.228" r="62.7723" fill="#686868"/>
<circle cx="520.782" cy="407.345" r="62.7723" fill="#686868"/>
<circle cx="583.554" cy="384.747" r="62.7723" fill="#686868"/>
<circle cx="652.604" cy="402.323" r="62.7723" fill="#686868"/>
<circle cx="632.517" cy="453.796" r="62.7723" fill="#686868"/>
<circle cx="559.701" cy="453.796" r="62.7723" fill="#686868"/>
<circle cx="643.816" cy="350.85" r="62.7723" fill="#686868"/>
<circle cx="706.588" cy="328.251" r="62.7723" fill="#686868"/>
<circle cx="775.638" cy="345.828" r="62.7723" fill="#686868"/>
<circle cx="755.55" cy="397.301" r="62.7723" fill="#686868"/>
<circle cx="682.735" cy="397.301" r="62.7723" fill="#686868"/>
<circle cx="765.594" cy="299.376" r="62.7723" fill="#686868"/>
<circle cx="828.366" cy="276.778" r="62.7723" fill="#686868"/>
<circle cx="897.416" cy="294.354" r="62.7723" fill="#686868"/>
<circle cx="877.329" cy="345.828" r="62.7723" fill="#686868"/>
<circle cx="804.513" cy="345.828" r="62.7723" fill="#686868"/>
<circle cx="930.057" cy="240.37" r="62.7723" fill="#686868"/>
<circle cx="992.83" cy="217.772" r="62.7723" fill="#686868"/>
<circle cx="1061.88" cy="235.349" r="62.7723" fill="#686868"/>
<circle cx="1041.79" cy="286.822" r="62.7723" fill="#686868"/>
<circle cx="968.976" cy="286.822" r="62.7723" fill="#686868"/>
<circle cx="903.693" cy="360.893" r="62.7723" fill="#686868"/>
<circle cx="966.465" cy="338.295" r="62.7723" fill="#686868"/>
<circle cx="1035.51" cy="355.871" r="62.7723" fill="#686868"/>
<circle cx="1015.43" cy="407.345" r="62.7723" fill="#686868"/>
<circle cx="942.612" cy="407.345" r="62.7723" fill="#686868"/>
<circle cx="810.79" cy="408.6" r="62.7723" fill="#686868"/>
<circle cx="873.562" cy="386.002" r="62.7723" fill="#686868"/>
<circle cx="942.612" cy="403.578" r="62.7723" fill="#686868"/>
<circle cx="922.525" cy="455.051" r="62.7723" fill="#686868"/>
<circle cx="849.709" cy="455.051" r="62.7723" fill="#686868"/>
<circle cx="1035.51" cy="345.828" r="62.7723" fill="#686868"/>
<circle cx="1098.29" cy="323.23" r="62.7723" fill="#686868"/>
<circle cx="1167.34" cy="340.806" r="62.7723" fill="#686868"/>
<circle cx="1147.25" cy="392.279" r="62.7723" fill="#686868"/>
<circle cx="1074.43" cy="392.279" r="62.7723" fill="#686868"/>
<circle cx="1164.83" cy="386.002" r="62.7723" fill="#686868"/>
<circle cx="1227.6" cy="363.404" r="62.7723" fill="#686868"/>
<circle cx="1296.65" cy="380.98" r="62.7723" fill="#686868"/>
<circle cx="1276.56" cy="432.453" r="62.7723" fill="#686868"/>
<circle cx="1203.74" cy="432.453" r="62.7723" fill="#686868"/>
<circle cx="1243.92" cy="294.354" r="62.7723" fill="#686868"/>
<circle cx="1306.69" cy="271.756" r="62.7723" fill="#686868"/>
<circle cx="1375.74" cy="289.333" r="62.7723" fill="#686868"/>
<circle cx="1355.65" cy="340.806" r="62.7723" fill="#686868"/>
<circle cx="1282.84" cy="340.806" r="62.7723" fill="#686868"/>
<circle cx="1233.88" cy="487.693" r="62.7723" fill="#686868"/>
<circle cx="1296.65" cy="465.095" r="62.7723" fill="#686868"/>
<circle cx="1365.7" cy="482.671" r="62.7723" fill="#686868"/>
<circle cx="1345.61" cy="534.145" r="62.7723" fill="#686868"/>
<circle cx="1272.79" cy="534.145" r="62.7723" fill="#686868"/>
<circle cx="1078.2" cy="498.992" r="62.7723" fill="#686868"/>
<circle cx="1140.97" cy="476.394" r="62.7723" fill="#686868"/>
<circle cx="1210.02" cy="493.97" r="62.7723" fill="#686868"/>
<circle cx="1189.93" cy="545.444" r="62.7723" fill="#686868"/>
<circle cx="1117.12" cy="545.444" r="62.7723" fill="#686868"/>
<circle cx="932.568" cy="540.422" r="62.7723" fill="#686868"/>
<circle cx="995.341" cy="517.824" r="62.7723" fill="#686868"/>
<circle cx="1064.39" cy="535.4" r="62.7723" fill="#686868"/>
<circle cx="1044.3" cy="586.873" r="62.7723" fill="#686868"/>
<circle cx="971.487" cy="586.873" r="62.7723" fill="#686868"/>
<circle cx="1181.15" cy="573.063" r="62.7723" fill="#686868"/>
<circle cx="1243.92" cy="550.465" r="62.7723" fill="#686868"/>
<circle cx="1312.97" cy="568.042" r="62.7723" fill="#686868"/>
<circle cx="1292.88" cy="619.515" r="62.7723" fill="#686868"/>
<circle cx="1220.07" cy="619.515" r="62.7723" fill="#686868"/>
<circle cx="1320.5" cy="540.422" r="62.7723" fill="#686868"/>
<circle cx="1383.27" cy="517.824" r="62.7723" fill="#686868"/>
<circle cx="1452.32" cy="535.4" r="62.7723" fill="#686868"/>
<circle cx="1432.24" cy="586.873" r="62.7723" fill="#686868"/>
<circle cx="1359.42" cy="586.873" r="62.7723" fill="#686868"/>
<circle cx="1312.97" cy="394.79" r="62.7723" fill="#686868"/>
<circle cx="1375.74" cy="372.192" r="62.7723" fill="#686868"/>
<circle cx="1444.79" cy="389.768" r="62.7723" fill="#686868"/>
<circle cx="1424.7" cy="441.242" r="62.7723" fill="#686868"/>
<circle cx="1351.89" cy="441.242" r="62.7723" fill="#686868"/>
<circle cx="1408.38" cy="269.246" r="62.7723" fill="#686868"/>
<circle cx="1471.15" cy="246.648" r="62.7723" fill="#686868"/>
<circle cx="1540.2" cy="264.224" r="62.7723" fill="#686868"/>
<circle cx="1520.12" cy="315.697" r="62.7723" fill="#686868"/>
<circle cx="1447.3" cy="315.697" r="62.7723" fill="#686868"/>
<circle cx="1490.77" cy="397.37" r="62.7723" fill="#686868"/>
<circle cx="1553.54" cy="374.772" r="62.7723" fill="#686868"/>
<circle cx="1622.59" cy="392.348" r="62.7723" fill="#686868"/>
<circle cx="1602.51" cy="443.822" r="62.7723" fill="#686868"/>
<circle cx="1529.69" cy="443.822" r="62.7723" fill="#686868"/>
<circle cx="1481.77" cy="525.37" r="62.7723" fill="#686868"/>
<circle cx="1544.54" cy="502.772" r="62.7723" fill="#686868"/>
<circle cx="1613.59" cy="520.348" r="62.7723" fill="#686868"/>
<circle cx="1593.51" cy="571.822" r="62.7723" fill="#686868"/>
<circle cx="1520.69" cy="571.822" r="62.7723" fill="#686868"/>
<circle cx="1609.77" cy="437.37" r="62.7723" fill="#686868"/>
<circle cx="1672.54" cy="414.772" r="62.7723" fill="#686868"/>
<circle cx="1741.59" cy="432.348" r="62.7723" fill="#686868"/>
<circle cx="1721.51" cy="483.822" r="62.7723" fill="#686868"/>
<circle cx="1648.69" cy="483.822" r="62.7723" fill="#686868"/>
<circle cx="1710.77" cy="304.37" r="62.7723" fill="#686868"/>
<circle cx="1773.54" cy="281.772" r="62.7723" fill="#686868"/>
<circle cx="1842.59" cy="299.349" r="62.7723" fill="#686868"/>
<circle cx="1822.51" cy="350.822" r="62.7723" fill="#686868"/>
<circle cx="1749.69" cy="350.822" r="62.7723" fill="#686868"/>
<circle cx="1796.77" cy="245.37" r="62.7723" fill="#686868"/>
<circle cx="1859.54" cy="222.772" r="62.7723" fill="#686868"/>
<circle cx="1928.59" cy="240.349" r="62.7723" fill="#686868"/>
<circle cx="1908.51" cy="291.822" r="62.7723" fill="#686868"/>
<circle cx="1835.69" cy="291.822" r="62.7723" fill="#686868"/>
<circle cx="1801.77" cy="403.37" r="62.7723" fill="#686868"/>
<circle cx="1864.54" cy="380.772" r="62.7723" fill="#686868"/>
<circle cx="1933.59" cy="398.348" r="62.7723" fill="#686868"/>
<circle cx="1913.51" cy="449.822" r="62.7723" fill="#686868"/>
<circle cx="1840.69" cy="449.822" r="62.7723" fill="#686868"/>
<circle cx="1595.77" cy="310.37" r="62.7723" fill="#686868"/>
<circle cx="1658.54" cy="287.772" r="62.7723" fill="#686868"/>
<circle cx="1727.59" cy="305.349" r="62.7723" fill="#686868"/>
<circle cx="1707.51" cy="356.822" r="62.7723" fill="#686868"/>
<circle cx="1634.69" cy="356.822" r="62.7723" fill="#686868"/>
<circle cx="1102.05" cy="276.778" r="62.7723" fill="#686868"/>
<circle cx="1164.83" cy="254.18" r="62.7723" fill="#686868"/>
<circle cx="1233.88" cy="271.756" r="62.7723" fill="#686868"/>
<circle cx="1213.79" cy="323.23" r="62.7723" fill="#686868"/>
<circle cx="1140.97" cy="323.23" r="62.7723" fill="#686868"/>
<circle cx="1077.77" cy="168.37" r="62.7723" fill="#686868"/>
<circle cx="1140.54" cy="145.772" r="62.7723" fill="#686868"/>
<circle cx="1209.59" cy="163.349" r="62.7723" fill="#686868"/>
<circle cx="1189.51" cy="214.822" r="62.7723" fill="#686868"/>
<circle cx="1116.69" cy="214.822" r="62.7723" fill="#686868"/>
<circle cx="1213.77" cy="53.3704" r="62.7723" fill="#686868"/>
<circle cx="1276.54" cy="30.7723" r="62.7723" fill="#686868"/>
<circle cx="1345.59" cy="48.3485" r="62.7723" fill="#686868"/>
<circle cx="1325.51" cy="99.8218" r="62.7723" fill="#686868"/>
<circle cx="1252.69" cy="99.8218" r="62.7723" fill="#686868"/>
<circle cx="1243.77" cy="144.37" r="62.7723" fill="#686868"/>
<circle cx="1306.54" cy="121.772" r="62.7723" fill="#686868"/>
<circle cx="1375.59" cy="139.349" r="62.7723" fill="#686868"/>
<circle cx="1355.51" cy="190.822" r="62.7723" fill="#686868"/>
<circle cx="1282.69" cy="190.822" r="62.7723" fill="#686868"/>
<circle cx="1369.77" cy="50.3704" r="62.7723" fill="#686868"/>
<circle cx="1432.54" cy="27.7723" r="62.7723" fill="#686868"/>
<circle cx="1501.59" cy="45.3485" r="62.7723" fill="#686868"/>
<circle cx="1481.51" cy="96.8218" r="62.7723" fill="#686868"/>
<circle cx="1408.69" cy="96.8218" r="62.7723" fill="#686868"/>
<circle cx="1414.77" cy="168.37" r="62.7723" fill="#686868"/>
<circle cx="1477.54" cy="145.772" r="62.7723" fill="#686868"/>
<circle cx="1546.59" cy="163.349" r="62.7723" fill="#686868"/>
<circle cx="1526.51" cy="214.822" r="62.7723" fill="#686868"/>
<circle cx="1453.69" cy="214.822" r="62.7723" fill="#686868"/>
<circle cx="1540.77" cy="47.3704" r="62.7723" fill="#686868"/>
<circle cx="1603.54" cy="24.7723" r="62.7723" fill="#686868"/>
<circle cx="1672.59" cy="42.3485" r="62.7723" fill="#686868"/>
<circle cx="1652.51" cy="93.8218" r="62.7723" fill="#686868"/>
<circle cx="1579.69" cy="93.8218" r="62.7723" fill="#686868"/>
<circle cx="1549.77" cy="190.37" r="62.7723" fill="#686868"/>
<circle cx="1612.54" cy="167.772" r="62.7723" fill="#686868"/>
<circle cx="1681.59" cy="185.349" r="62.7723" fill="#686868"/>
<circle cx="1661.51" cy="236.822" r="62.7723" fill="#686868"/>
<circle cx="1588.69" cy="236.822" r="62.7723" fill="#686868"/>
<circle cx="1642.77" cy="162.37" r="62.7723" fill="#686868"/>
<circle cx="1705.54" cy="139.772" r="62.7723" fill="#686868"/>
<circle cx="1774.59" cy="157.349" r="62.7723" fill="#686868"/>
<circle cx="1754.51" cy="208.822" r="62.7723" fill="#686868"/>
<circle cx="1681.69" cy="208.822" r="62.7723" fill="#686868"/>
<circle cx="1677.77" cy="50.3704" r="62.7723" fill="#686868"/>
<circle cx="1740.54" cy="27.7723" r="62.7723" fill="#686868"/>
<circle cx="1809.59" cy="45.3485" r="62.7723" fill="#686868"/>
<circle cx="1789.51" cy="96.8218" r="62.7723" fill="#686868"/>
<circle cx="1716.69" cy="96.8218" r="62.7723" fill="#686868"/>
<circle cx="1743.77" cy="19.3704" r="62.7723" fill="#686868"/>
<circle cx="1806.54" cy="-3.22772" r="62.7723" fill="#686868"/>
<circle cx="1875.59" cy="14.3485" r="62.7723" fill="#686868"/>
<circle cx="1855.51" cy="65.8218" r="62.7723" fill="#686868"/>
<circle cx="1782.69" cy="65.8218" r="62.7723" fill="#686868"/>
<circle cx="1772.77" cy="114.37" r="62.7723" fill="#686868"/>
<circle cx="1835.54" cy="91.7723" r="62.7723" fill="#686868"/>
<circle cx="1904.59" cy="109.349" r="62.7723" fill="#686868"/>
<circle cx="1884.51" cy="160.822" r="62.7723" fill="#686868"/>
<circle cx="1811.69" cy="160.822" r="62.7723" fill="#686868"/>
<circle cx="406.537" cy="487.693" r="62.7723" fill="#686868"/>
<circle cx="469.309" cy="465.095" r="62.7723" fill="#686868"/>
<circle cx="538.358" cy="482.671" r="62.7723" fill="#686868"/>
<circle cx="518.271" cy="534.145" r="62.7723" fill="#686868"/>
<circle cx="445.455" cy="534.145" r="62.7723" fill="#686868"/>
<circle cx="480.608" cy="537.911" r="62.7723" fill="#686868"/>
<circle cx="543.38" cy="515.313" r="62.7723" fill="#686868"/>
<circle cx="612.43" cy="532.889" r="62.7723" fill="#686868"/>
<circle cx="592.343" cy="584.362" r="62.7723" fill="#686868"/>
<circle cx="519.527" cy="584.362" r="62.7723" fill="#686868"/>
</g>
<defs>
<clipPath id="clip0">
<rect width="1920" height="1079.47" fill="white"/>
</clipPath>
</defs>
</svg>
