<svg width="1920" height="1080" viewBox="0 0 1920 1080" fill="none" xmlns="http://www.w3.org/2000/svg">
<g clip-path="url(#clip0)">
<rect width="1920" height="1079.47" fill="#9F9F9F"/>
<path d="M-63.3889 1139.04L43.3756 966.574L150.992 1138.58L-63.3889 1139.04Z" fill="#0BC4FF"/>
<path d="M48.1288 1140.26L182.818 922.689L318.582 1139.69L48.1288 1140.26Z" fill="#0BC4FF"/>
<path d="M167.934 1140.26L302.623 922.689L438.387 1139.69L167.934 1140.26Z" fill="#0BC4FF"/>
<path d="M334.848 1147L456.234 950.918L578.589 1146.49L334.848 1147Z" fill="#0BC4FF"/>
<path d="M464.166 1157.59L574.167 979.901L685.045 1157.12L464.166 1157.59Z" fill="#0BC4FF"/>
<path d="M587.6 1139.04L694.365 966.574L801.981 1138.58L587.6 1139.04Z" fill="#0BC4FF"/>
<path d="M699.118 1140.26L833.807 922.689L969.57 1139.69L699.118 1140.26Z" fill="#0BC4FF"/>
<path d="M818.922 1140.26L953.612 922.689L1089.38 1139.69L818.922 1140.26Z" fill="#0BC4FF"/>
<path d="M985.837 1147L1107.22 950.918L1229.58 1146.49L985.837 1147Z" fill="#0BC4FF"/>
<path d="M1115.15 1157.59L1225.16 979.901L1336.03 1157.12L1115.15 1157.59Z" fill="#0BC4FF"/>
<path d="M1221.27 1139.04L1328.03 966.574L1435.65 1138.58L1221.27 1139.04Z" fill="#0BC4FF"/>
<path d="M1332.79 1140.26L1467.47 922.689L1603.24 1139.69L1332.79 1140.26Z" fill="#0BC4FF"/>
<path d="M1452.59 1140.26L1587.28 922.689L1723.04 1139.69L1452.59 1140.26Z" fill="#0BC4FF"/>
<path d="M1619.5 1147L1740.89 950.918L1863.25 1146.49L1619.5 1147Z" fill="#0BC4FF"/>
<path d="M1748.82 1157.59L1858.82 979.901L1969.7 1157.12L1748.82 1157.59Z" fill="#0BC4FF"/>
<path d="M17.8785 1093.88L371.063 523.354L727.065 1092.37L17.8785 1093.88Z" fill="#0BC4FF"/>
<path d="M-72.0597 1144.82L34.7048 972.354L142.321 1144.36L-72.0597 1144.82Z" fill="#FF3F6D"/>
<path d="M39.4579 1146.04L174.147 928.47L309.911 1145.47L39.4579 1146.04Z" fill="#FF3F6D"/>
<path d="M0.537765 1093.88L353.722 523.354L709.724 1092.37L0.537765 1093.88Z" fill="#FF3F6D"/>
<path d="M326.177 1152.78L447.564 956.698L569.919 1152.27L326.177 1152.78Z" fill="#FF3F6D"/>
<path d="M455.495 1163.38L565.496 985.682L676.374 1162.91L455.495 1163.38Z" fill="#FF3F6D"/>
<path d="M578.929 1144.82L685.694 972.354L793.31 1144.36L578.929 1144.82Z" fill="#FF3F6D"/>
<path d="M690.447 1146.04L825.136 928.47L960.9 1145.47L690.447 1146.04Z" fill="#FF3F6D"/>
<path d="M810.252 1146.04L944.941 928.47L1080.7 1145.47L810.252 1146.04Z" fill="#FF3F6D"/>
<path d="M977.166 1152.78L1098.55 956.698L1220.91 1152.27L977.166 1152.78Z" fill="#FF3F6D"/>
<path d="M1106.48 1163.38L1216.48 985.682L1327.36 1162.91L1106.48 1163.38Z" fill="#FF3F6D"/>
<path d="M1212.6 1144.82L1319.36 972.354L1426.98 1144.36L1212.6 1144.82Z" fill="#FF3F6D"/>
<path d="M1324.12 1146.04L1458.8 928.47L1594.57 1145.47L1324.12 1146.04Z" fill="#FF3F6D"/>
<path d="M1443.92 1146.04L1578.61 928.47L1714.37 1145.47L1443.92 1146.04Z" fill="#FF3F6D"/>
<path d="M1610.83 1152.78L1732.22 956.698L1854.58 1152.27L1610.83 1152.78Z" fill="#FF3F6D"/>
<path d="M1740.15 1163.38L1850.15 985.682L1961.03 1162.91L1740.15 1163.38Z" fill="#FF3F6D"/>
<rect x="-9" y="5.09302" width="1714.94" height="75.3267" fill="#9F9F9F"/>
<circle cx="380.188" cy="365.406" r="62.7723" fill="#686868"/>
<circle cx="442.96" cy="342.808" r="62.7723" fill="#686868"/>
<circle cx="512.01" cy="360.384" r="62.7723" fill="#686868"/>
<circle cx="491.923" cy="411.857" r="62.7723" fill="#686868"/>
<circle cx="419.107" cy="411.857" r="62.7723" fill="#686868"/>
<circle cx="292.307" cy="450.776" r="62.7723" fill="#686868"/>
<circle cx="355.079" cy="428.178" r="62.7723" fill="#686868"/>
<circle cx="424.129" cy="445.754" r="62.7723" fill="#686868"/>
<circle cx="404.042" cy="497.228" r="62.7723" fill="#686868"/>
<circle cx="331.226" cy="497.228" r="62.7723" fill="#686868"/>
<circle cx="574.782" cy="178.345" r="62.7723" fill="#686868"/>
<circle cx="637.554" cy="155.747" r="62.7723" fill="#686868"/>
<circle cx="706.604" cy="173.323" r="62.7723" fill="#686868"/>
<circle cx="686.517" cy="224.796" r="62.7723" fill="#686868"/>
<circle cx="613.701" cy="224.796" r="62.7723" fill="#686868"/>
<circle cx="697.816" cy="121.85" r="62.7723" fill="#686868"/>
<circle cx="760.588" cy="99.2515" r="62.7723" fill="#686868"/>
<circle cx="829.638" cy="116.828" r="62.7723" fill="#686868"/>
<circle cx="809.55" cy="168.301" r="62.7723" fill="#686868"/>
<circle cx="736.735" cy="168.301" r="62.7723" fill="#686868"/>
<circle cx="819.594" cy="70.3762" r="62.7723" fill="#686868"/>
<circle cx="882.366" cy="47.7783" r="62.7723" fill="#686868"/>
<circle cx="951.416" cy="65.3545" r="62.7723" fill="#686868"/>
<circle cx="931.329" cy="116.828" r="62.7723" fill="#686868"/>
<circle cx="858.513" cy="116.828" r="62.7723" fill="#686868"/>
<circle cx="984.057" cy="11.3703" r="62.7723" fill="#686868"/>
<circle cx="1046.83" cy="-11.2277" r="62.7723" fill="#686868"/>
<circle cx="1115.88" cy="6.34851" r="62.7723" fill="#686868"/>
<circle cx="1095.79" cy="57.8218" r="62.7723" fill="#686868"/>
<circle cx="1022.98" cy="57.8218" r="62.7723" fill="#686868"/>
<circle cx="957.693" cy="131.893" r="62.7723" fill="#686868"/>
<circle cx="1020.47" cy="109.295" r="62.7723" fill="#686868"/>
<circle cx="1089.51" cy="126.871" r="62.7723" fill="#686868"/>
<circle cx="1069.43" cy="178.345" r="62.7723" fill="#686868"/>
<circle cx="996.612" cy="178.345" r="62.7723" fill="#686868"/>
<circle cx="864.79" cy="179.6" r="62.7723" fill="#686868"/>
<circle cx="927.562" cy="157.002" r="62.7723" fill="#686868"/>
<circle cx="996.612" cy="174.578" r="62.7723" fill="#686868"/>
<circle cx="976.525" cy="226.051" r="62.7723" fill="#686868"/>
<circle cx="903.709" cy="226.051" r="62.7723" fill="#686868"/>
<circle cx="1089.51" cy="116.828" r="62.7723" fill="#686868"/>
<circle cx="1152.29" cy="94.2297" r="62.7723" fill="#686868"/>
<circle cx="1221.34" cy="111.806" r="62.7723" fill="#686868"/>
<circle cx="1201.25" cy="163.279" r="62.7723" fill="#686868"/>
<circle cx="1128.43" cy="163.279" r="62.7723" fill="#686868"/>
<circle cx="1218.83" cy="157.002" r="62.7723" fill="#686868"/>
<circle cx="1281.6" cy="134.404" r="62.7723" fill="#686868"/>
<circle cx="1350.65" cy="151.98" r="62.7723" fill="#686868"/>
<circle cx="1330.56" cy="203.453" r="62.7723" fill="#686868"/>
<circle cx="1257.74" cy="203.453" r="62.7723" fill="#686868"/>
<circle cx="1297.92" cy="65.3545" r="62.7723" fill="#686868"/>
<circle cx="1360.69" cy="42.7564" r="62.7723" fill="#686868"/>
<circle cx="1429.74" cy="60.3326" r="62.7723" fill="#686868"/>
<circle cx="1409.65" cy="111.806" r="62.7723" fill="#686868"/>
<circle cx="1336.84" cy="111.806" r="62.7723" fill="#686868"/>
<circle cx="1287.88" cy="258.693" r="62.7723" fill="#686868"/>
<circle cx="1350.65" cy="236.095" r="62.7723" fill="#686868"/>
<circle cx="1419.7" cy="253.671" r="62.7723" fill="#686868"/>
<circle cx="1399.61" cy="305.145" r="62.7723" fill="#686868"/>
<circle cx="1326.79" cy="305.145" r="62.7723" fill="#686868"/>
<circle cx="1132.2" cy="269.992" r="62.7723" fill="#686868"/>
<circle cx="1194.97" cy="247.394" r="62.7723" fill="#686868"/>
<circle cx="1264.02" cy="264.97" r="62.7723" fill="#686868"/>
<circle cx="1243.93" cy="316.444" r="62.7723" fill="#686868"/>
<circle cx="1171.12" cy="316.444" r="62.7723" fill="#686868"/>
<circle cx="986.568" cy="311.422" r="62.7723" fill="#686868"/>
<circle cx="1049.34" cy="288.824" r="62.7723" fill="#686868"/>
<circle cx="1118.39" cy="306.4" r="62.7723" fill="#686868"/>
<circle cx="1098.3" cy="357.873" r="62.7723" fill="#686868"/>
<circle cx="1025.49" cy="357.873" r="62.7723" fill="#686868"/>
<circle cx="1235.15" cy="344.063" r="62.7723" fill="#686868"/>
<circle cx="1297.92" cy="321.465" r="62.7723" fill="#686868"/>
<circle cx="1366.97" cy="339.042" r="62.7723" fill="#686868"/>
<circle cx="1346.88" cy="390.515" r="62.7723" fill="#686868"/>
<circle cx="1274.07" cy="390.515" r="62.7723" fill="#686868"/>
<circle cx="1374.5" cy="311.422" r="62.7723" fill="#686868"/>
<circle cx="1437.27" cy="288.824" r="62.7723" fill="#686868"/>
<circle cx="1506.32" cy="306.4" r="62.7723" fill="#686868"/>
<circle cx="1486.24" cy="357.873" r="62.7723" fill="#686868"/>
<circle cx="1413.42" cy="357.873" r="62.7723" fill="#686868"/>
<circle cx="1486.24" cy="216.008" r="62.7723" fill="#686868"/>
<circle cx="1549.01" cy="193.41" r="62.7723" fill="#686868"/>
<circle cx="1618.06" cy="210.986" r="62.7723" fill="#686868"/>
<circle cx="1597.97" cy="262.459" r="62.7723" fill="#686868"/>
<circle cx="1525.15" cy="262.459" r="62.7723" fill="#686868"/>
<circle cx="1584.16" cy="100.507" r="62.7723" fill="#686868"/>
<circle cx="1646.93" cy="77.9089" r="62.7723" fill="#686868"/>
<circle cx="1715.98" cy="95.4851" r="62.7723" fill="#686868"/>
<circle cx="1695.9" cy="146.958" r="62.7723" fill="#686868"/>
<circle cx="1623.08" cy="146.958" r="62.7723" fill="#686868"/>
<circle cx="1618.06" cy="52.8" r="62.7723" fill="#686868"/>
<circle cx="1680.83" cy="30.202" r="62.7723" fill="#686868"/>
<circle cx="1749.88" cy="47.7783" r="62.7723" fill="#686868"/>
<circle cx="1729.79" cy="99.2515" r="62.7723" fill="#686868"/>
<circle cx="1656.98" cy="99.2515" r="62.7723" fill="#686868"/>
<circle cx="1366.97" cy="165.79" r="62.7723" fill="#686868"/>
<circle cx="1429.74" cy="143.192" r="62.7723" fill="#686868"/>
<circle cx="1498.79" cy="160.768" r="62.7723" fill="#686868"/>
<circle cx="1478.7" cy="212.242" r="62.7723" fill="#686868"/>
<circle cx="1405.89" cy="212.242" r="62.7723" fill="#686868"/>
<circle cx="1462.38" cy="40.2455" r="62.7723" fill="#686868"/>
<circle cx="1525.15" cy="17.6475" r="62.7723" fill="#686868"/>
<circle cx="1594.2" cy="35.2238" r="62.7723" fill="#686868"/>
<circle cx="1574.12" cy="86.697" r="62.7723" fill="#686868"/>
<circle cx="1501.3" cy="86.697" r="62.7723" fill="#686868"/>
<circle cx="1156.05" cy="47.7783" r="62.7723" fill="#686868"/>
<circle cx="1218.83" cy="25.1802" r="62.7723" fill="#686868"/>
<circle cx="1287.88" cy="42.7564" r="62.7723" fill="#686868"/>
<circle cx="1267.79" cy="94.2297" r="62.7723" fill="#686868"/>
<circle cx="1194.97" cy="94.2297" r="62.7723" fill="#686868"/>
<circle cx="460.537" cy="258.693" r="62.7723" fill="#686868"/>
<circle cx="523.309" cy="236.095" r="62.7723" fill="#686868"/>
<circle cx="592.358" cy="253.671" r="62.7723" fill="#686868"/>
<circle cx="572.271" cy="305.145" r="62.7723" fill="#686868"/>
<circle cx="499.455" cy="305.145" r="62.7723" fill="#686868"/>
<circle cx="534.608" cy="308.911" r="62.7723" fill="#686868"/>
<circle cx="597.38" cy="286.313" r="62.7723" fill="#686868"/>
<circle cx="666.43" cy="303.889" r="62.7723" fill="#686868"/>
<circle cx="646.343" cy="355.362" r="62.7723" fill="#686868"/>
<circle cx="573.527" cy="355.362" r="62.7723" fill="#686868"/>
</g>
<defs>
<clipPath id="clip0">
<rect width="1920" height="1079.47" fill="white"/>
</clipPath>
</defs>
</svg>
